<?xml version="1.0" encoding="UTF-8"?>
<!DOCTYPE svg PUBLIC "-//W3C//DTD SVG 1.1//EN" "http://www.w3.org/Graphics/SVG/1.1/DTD/svg11.dtd">
<!-- Creator: CorelDRAW X5 -->
<svg xmlns="http://www.w3.org/2000/svg" xml:space="preserve" width="54.5042mm" height="54.5042mm" style="shape-rendering:geometricPrecision; text-rendering:geometricPrecision; image-rendering:optimizeQuality; fill-rule:evenodd; clip-rule:evenodd"
viewBox="0 0 1758 1758"
 xmlns:xlink="http://www.w3.org/1999/xlink">
 <defs>
  <style type="text/css">
   <![CDATA[
    .fil0 {fill:none}
    .fil1 {fill:#1F1B20}
    .fil2 {fill:#FEFEFE;fill-rule:nonzero}
   ]]>
  </style>
 </defs>
 <g id="Ebene_x0020_1">
  <metadata id="CorelCorpID_0Corel-Layer"/>
  <rect class="fil0" width="1758" height="1758"/>
  <g id="_604569088">
   <polygon class="fil1" points="879,265 1145,418 1411,572 1411,879 1411,1186 1145,1340 879,1493 613,1340 347,1186 347,879 347,572 613,418 "/>
   <path class="fil2" d="M748 454l104 29 0 0 5 1 172 -44c3,-1 6,0 8,2l0 0 111 114c4,-3 9,-4 14,-4 14,0 25,11 25,25 0,5 -2,10 -5,15l142 145c2,2 3,5 2,8l-59 213 4 16c13,1 23,12 23,25 0,14 -11,25 -25,25 -5,0 -10,-2 -14,-4l-7 7 -32 114c-1,3 -3,5 -6,6l-114 29 -108 106c1,3 2,7 2,10 0,14 -11,25 -25,25 -11,0 -21,-7 -24,-17l-86 -24 0 0 -104 -29 0 0 0 0 0 0 0 0 0 0 0 0 -208 -58c-3,-1 -5,-3 -5,-6l-27 -104c0,0 0,0 0,-1l-27 -104 0 0 0 0 0 0 -54 -209c-1,-3 0,-5 2,-7l0 0 77 -75 78 -76 0 0 0 0 0 0 0 0 0 0 30 -29 2 -6c-7,-5 -11,-12 -11,-21 0,-14 11,-25 25,-25 9,0 17,5 21,12l6 -2 81 -80c2,-2 5,-3 7,-2zm216 814l13 -46 -99 47 63 17c3,-10 12,-18 24,-18zm22 -79l148 -536 -125 -86c-3,1 -6,2 -9,2 -5,0 -10,-1 -14,-4l-438 373 -8 -11 437 -373c-1,-3 -2,-6 -2,-10l0 -1 -23 -16 -91 -25 -33 8 -202 96 -89 319c8,4 13,13 13,22 0,5 -2,10 -5,14l267 273 174 -45zm152 -551l11 -39c-7,-4 -12,-12 -12,-21l-112 -31c-1,4 -2,7 -4,10l117 81zm24 -32l-11 41 26 18 -15 -59zm-15 56l-144 523 40 -10 69 -33 0 0 74 -73 0 0 23 -281 0 0 -26 -101 0 0 -36 -25zm-152 551l-16 59 0 0 89 -87 -27 7 -46 22zm5 -696c10,0 18,5 22,13l108 30 -101 -103 -140 36 68 19 0 0 0 0 0 0 0 0 0 0 0 0 31 9c4,-2 8,-3 13,-3zm-344 42c-3,7 -8,13 -15,15l-9 9 -1 2 122 -58 -87 22 -9 9zm-124 411c-2,1 -5,1 -8,1 -12,0 -22,-8 -24,-19l-2 20 0 0 26 101 0 0 232 161 47 13 -272 -277zm-31 -35c3,-8 11,-13 19,-14l86 -307 -11 5 0 0 -74 73 0 0 -20 244zm677 -326l18 70c0,0 0,0 0,1l27 104 0 0 0 0 0 0 36 142 51 -182 -132 -135zm47 440l-27 26 -78 76 0 0 0 0 0 0 0 0 0 0 -1 1 83 -21 23 -83zm-538 -522l141 -36 -81 -23 -60 59zm278 682l-153 39 44 12 109 -52zm268 -188l19 -67 -32 -124 -18 222 31 -31zm-23 125c-1,0 -3,0 -4,0m-494 75l-183 -127 21 82 162 45zm-226 -293l18 -222 -60 59 42 163z"/>
  </g>
 </g>
</svg>
